<svg xmlns="http://www.w3.org/2000/svg" viewBox="0 0 32 32">
  <defs>
    <linearGradient id="flask" x1="0%" y1="0%" x2="100%" y2="100%">
      <stop offset="0%" style="stop-color:#e94560"/>
      <stop offset="100%" style="stop-color:#ff6b6b"/>
    </linearGradient>
  </defs>

  <!-- フラスコ本体 -->
  <path d="M12 4 L12 12 L6 26 C5 28 6 30 8 30 L24 30 C26 30 27 28 26 26 L20 12 L20 4 Z"
        fill="url(#flask)" stroke="#fff" stroke-width="1"/>

  <!-- フラスコ口 -->
  <rect x="10" y="2" width="12" height="4" rx="1" fill="#1a1a2e" stroke="#fff" stroke-width="0.5"/>

  <!-- 液体 -->
  <path d="M8 24 Q12 20 16 24 Q20 28 24 24 L24 28 C24 29 23 30 22 30 L10 30 C9 30 8 29 8 28 Z"
        fill="#16213e" opacity="0.8"/>

  <!-- 泡 -->
  <circle cx="12" cy="22" r="1.5" fill="#fff" opacity="0.6"/>
  <circle cx="18" cy="24" r="1" fill="#fff" opacity="0.4"/>
  <circle cx="15" cy="26" r="0.8" fill="#fff" opacity="0.5"/>
</svg>
